<svg xmlns="http://www.w3.org/2000/svg" width="141" height="20" viewBox="0 0 141 20" fill="none"><path d="M16.4912 7.60426C16.512 7.57309 16.5224 7.54191 16.5432 7.51074C16.5299 7.544 16.5125 7.57542 16.4912 7.60426Z" fill="#FFCC0D"></path><path d="M16.8757 6.88731C16.8879 6.86391 16.8984 6.8396 16.9068 6.81458C16.8965 6.83536 16.8861 6.86653 16.8757 6.88731Z" fill="#FFCC0D"></path><path d="M13.478 10.738C13.6754 10.603 13.852 10.4575 14.0391 10.312C16.1276 8.4313 17.0524 6.11418 16.138 4.59715C14.995 2.69565 11.3894 2.758 8.08521 4.74262C5.37324 6.37395 3.72112 8.78459 3.84581 10.6549C3.85097 10.7333 3.83306 10.8115 3.79428 10.8798C3.7555 10.9481 3.69756 11.0036 3.62761 11.0394L1.62221 12.1408C1.22736 13.7202 1.32088 15.1956 1.95471 16.2451C2.07559 16.4473 2.21847 16.6354 2.38073 16.8062L6.22528 13.0863C6.27095 13.0424 6.32895 13.0134 6.39153 13.0032C5.89285 12.8419 5.4664 12.511 5.18621 12.068C4.24066 10.4887 5.68496 7.8806 8.40732 6.22848C11.1297 4.57637 14.1222 4.5348 15.0781 6.10379C15.8148 7.35483 15.1093 9.20437 13.478 10.738ZM6.24606 13.0759C6.24606 13.0863 6.23567 13.0863 6.22528 13.0967L6.24606 13.0759Z" fill="#FFCC0D"></path><path d="M16.7614 7.1262C16.7713 7.09988 16.7853 7.07531 16.803 7.05347C16.7926 7.07425 16.7718 7.10127 16.7614 7.1262Z" fill="#FFCC0D"></path><path d="M16.6367 7.36535C16.6471 7.33418 16.6679 7.3134 16.6783 7.28223C16.6679 7.30924 16.6461 7.33418 16.6367 7.36535Z" fill="#FFCC0D"></path><path d="M17.229 5.93186C17.229 5.92129 17.2396 5.91072 17.2396 5.90015C17.2356 5.90432 17.2325 5.90933 17.2307 5.91482C17.2289 5.9203 17.2283 5.92612 17.229 5.93186Z" fill="#FFCC0D"></path><path d="M17.0731 6.40925C17.0834 6.38847 17.0835 6.37808 17.0938 6.3573C17.0897 6.37562 17.0827 6.39316 17.0731 6.40925Z" fill="#FFCC0D"></path><path d="M17.1562 6.16657C17.1562 6.15605 17.1667 6.13503 17.1667 6.12451C17.1657 6.13923 17.1562 6.16026 17.1562 6.16657Z" fill="#FFCC0D"></path><path d="M16.9796 6.64828C16.9911 6.62933 16.9982 6.60802 17.0004 6.58594C16.9982 6.60802 16.9911 6.62933 16.9796 6.64828Z" fill="#FFCC0D"></path><path d="M15.6392 8.77836C15.6704 8.7368 15.7015 8.70563 15.7327 8.66406C15.7041 8.70421 15.6729 8.74239 15.6392 8.77836Z" fill="#FFCC0D"></path><path d="M15.8365 8.54983C15.8677 8.51866 15.8885 8.47709 15.9197 8.44592C15.8865 8.47577 15.8584 8.51087 15.8365 8.54983Z" fill="#FFCC0D"></path><path d="M16.0132 8.31082C16.034 8.27964 16.0652 8.23808 16.086 8.20691C16.0678 8.24544 16.0432 8.28059 16.0132 8.31082Z" fill="#FFCC0D"></path><path d="M15.4418 9.007C15.473 8.96543 15.5042 8.93426 15.5353 8.8927C15.5068 8.93284 15.4755 8.97103 15.4418 9.007Z" fill="#FFCC0D"></path><path d="M15.2339 9.23563C15.2651 9.19407 15.3067 9.1629 15.3378 9.12134C15.3004 9.15681 15.2657 9.19501 15.2339 9.23563Z" fill="#FFCC0D"></path><path d="M14.6718 9.77588C14.6303 9.81744 14.5783 9.859 14.5367 9.90057C14.5841 9.86163 14.6292 9.82 14.6718 9.77588Z" fill="#FFCC0D"></path><path d="M14.9015 9.55774L14.7768 9.68243L14.9015 9.55774Z" fill="#FFCC0D"></path><path d="M15.0053 9.46415C15.0408 9.4235 15.079 9.38531 15.1196 9.34985L15.0053 9.46415Z" fill="#FFCC0D"></path><path d="M14.1429 10.2434C14.2481 10.1624 14.3487 10.0757 14.4442 9.98364C14.3507 10.0668 14.2468 10.1499 14.1429 10.2434Z" fill="#FFCC0D"></path><path d="M16.1899 8.08229C16.2108 8.04868 16.2352 8.01734 16.2626 7.98877C16.2305 8.01294 16.2054 8.04521 16.1899 8.08229Z" fill="#FFCC0D"></path><path d="M16.3458 7.84327L16.4081 7.74976L16.3458 7.84327Z" fill="#FFCC0D"></path><path d="M6.22528 13.1012C6.23585 13.0907 6.24642 13.0907 6.257 13.0801L6.22528 13.1012Z" fill="#FF8001"></path><path d="M3.84578 10.6695C3.72109 8.79915 5.37321 6.38852 8.08517 4.75718C11.379 2.77257 14.9846 2.71022 16.1379 4.61171C17.0523 6.12875 16.1275 8.44587 14.039 10.3266C16.7718 8.14454 18.0706 5.26633 16.9588 3.42718C15.6704 1.2867 11.6284 1.35943 7.92931 3.59343C6.11094 4.69484 4.7082 6.10797 3.90812 7.51071C3.8878 7.55092 3.85847 7.5859 3.82243 7.61293C3.78639 7.63996 3.7446 7.65832 3.70031 7.66657L2.49499 7.95751C1.30007 9.51611 0.43764 11.1371 0.0116231 12.5294C-0.003889 12.5802 -0.00387424 12.6346 0.0116667 12.6854C0.0272076 12.7362 0.057567 12.7813 0.0988575 12.8148C0.140148 12.8482 0.190491 12.8686 0.243441 12.8733C0.296391 12.878 0.349538 12.8668 0.396077 12.8411L3.62758 11.0643C3.69718 11.0254 3.75451 10.9678 3.79307 10.8981C3.83163 10.8283 3.84989 10.7491 3.84578 10.6695Z" fill="#FF8001"></path><path d="M23.1724 2.78298C20.8761 -1.04078 13.6442 -0.905704 7.03573 3.07392C4.74978 4.44549 2.84829 6.0976 1.41438 7.83285C1.38751 7.86647 1.37175 7.9076 1.36926 7.95057C1.36678 7.99354 1.37769 8.03621 1.4005 8.07271C1.42331 8.1092 1.45689 8.13772 1.4966 8.15431C1.53631 8.17091 1.58019 8.17476 1.62219 8.16535L3.71071 7.6666C3.755 7.65834 3.79679 7.63998 3.83283 7.61295C3.86888 7.58592 3.8982 7.55094 3.91853 7.51074C4.71861 6.0976 6.11096 4.68447 7.93972 3.59345C11.6388 1.36985 15.6808 1.29712 16.9692 3.4272C18.2576 5.55729 16.3042 9.10051 12.6051 11.3345C10.4854 12.6126 8.25143 13.1736 6.49541 13.0282C6.44784 13.0228 6.39966 13.0284 6.35461 13.0446C6.30956 13.0608 6.26885 13.0872 6.23565 13.1217L0.832498 18.3482C0.796702 18.3833 0.769246 18.426 0.752159 18.4731C0.735072 18.5202 0.72879 18.5706 0.733777 18.6204C0.738765 18.6703 0.754894 18.7184 0.780974 18.7612C0.807054 18.804 0.842416 18.8404 0.884451 18.8677C4.064 20.8731 9.92433 20.2081 15.369 16.9247C21.9775 12.9201 25.4781 6.59636 23.1724 2.78298Z" fill="#ED2A2F"></path><path d="M34.7944 5.72983C35.4417 6.28989 35.7576 7.08062 35.7576 8.07708C35.7576 9.12758 35.4241 9.94741 34.7767 10.5293C34.1294 11.1112 33.2181 11.4052 32.044 11.4052H29.6967V14.3479H28.4V4.89235H32.0616C33.2344 4.89027 34.1453 5.16943 34.7944 5.72983ZM33.8655 9.68868C34.3039 9.33851 34.5138 8.81274 34.5138 8.11241C34.5138 7.42871 34.306 6.9206 33.8655 6.57044C33.4249 6.22027 32.815 6.04467 32.0086 6.04467L29.7144 6.06233V10.2186H32.0086C32.815 10.2311 33.4446 10.0565 33.8655 9.68868Z" fill="black"></path><path d="M43.8498 14.3478L41.9795 11.3699C41.7717 11.3875 41.594 11.4052 41.46 11.4052H39.0597V14.3478H37.7547V4.89233H41.4506C42.6414 4.89233 43.5693 5.17184 44.2353 5.71527C44.8837 6.27637 45.2162 7.04632 45.2162 8.08019C45.2162 8.85118 45.0416 9.48189 44.6904 10.0066C44.3392 10.5313 43.8145 10.9002 43.1495 11.1496L45.3565 14.3551L43.8498 14.3478ZM41.433 10.2311C42.2382 10.2311 42.869 10.0565 43.2898 9.70633C43.7272 9.35617 43.9371 8.8304 43.9371 8.12903C43.9371 7.44636 43.7293 6.93826 43.2898 6.58809C42.8503 6.23792 42.2382 6.06232 41.433 6.06232H39.0327V10.2311H41.433Z" fill="black"></path><path d="M54.3953 5.44921C55.1404 5.85623 55.7631 6.45494 56.1991 7.18341C56.6387 7.91303 56.8691 8.74952 56.8652 9.60132C56.869 10.4583 56.6387 11.3001 56.1991 12.0359C55.7638 12.7694 55.1413 13.374 54.3953 13.7877C53.6299 14.2156 52.767 14.4386 51.8901 14.4351C51.0122 14.4474 50.147 14.2238 49.3849 13.7877C48.639 13.374 48.0164 12.7694 47.5811 12.0359C47.142 11.2999 46.9117 10.4583 46.9151 9.60132C46.9146 8.75039 47.1438 7.91511 47.5785 7.18359C48.0132 6.45207 48.6373 5.85144 49.3849 5.44505C50.1517 5.02259 51.0147 4.80567 51.8901 4.81538C52.7669 4.79834 53.6321 5.01725 54.3953 5.44921ZM50.0863 6.46542C49.5347 6.78527 49.0707 7.23643 48.7355 7.7788C48.3989 8.33286 48.2229 8.96964 48.2274 9.61794C48.2252 10.2663 48.4009 10.9028 48.7355 11.4581C49.0654 12.0094 49.5303 12.4675 50.0863 12.7892C50.6429 13.1178 51.2791 13.2875 51.9255 13.2796C52.5663 13.2874 53.1967 13.1177 53.7469 12.7892C54.2968 12.4662 54.755 12.008 55.078 11.4581C55.3216 11.0437 55.4806 10.5851 55.5455 10.1088C55.6105 9.63245 55.5801 9.14798 55.4563 8.68349C55.3325 8.21899 55.1176 7.78373 54.8242 7.40296C54.5307 7.02219 54.1646 6.70351 53.7469 6.46542C53.1967 6.1369 52.5663 5.96715 51.9255 5.97498C51.2791 5.96712 50.6429 6.13675 50.0863 6.46542Z" fill="black"></path><path d="M65.238 9.72397H66.3945V13.1913C65.8909 13.5905 65.3217 13.8989 64.7122 14.1026C64.0996 14.3216 63.454 14.4341 62.8035 14.4351C61.9255 14.4474 61.0604 14.2239 60.2983 13.7878C59.5573 13.3732 58.9404 12.7684 58.5111 12.0359C58.0777 11.2984 57.8539 10.4567 57.8637 9.60136C57.8576 8.74941 58.0878 7.91243 58.5288 7.18345C58.9656 6.45533 59.5886 5.85674 60.3336 5.44925C61.1123 5.02515 61.9864 4.80697 62.8731 4.81542C63.5308 4.8179 64.183 4.93644 64.7995 5.16559C65.3988 5.38092 65.9517 5.70814 66.4288 6.12984L65.6931 7.07539C65.3157 6.72341 64.8764 6.44439 64.3974 6.25245C63.9184 6.05925 63.4072 5.95808 62.8908 5.95424C62.2385 5.94388 61.596 6.11358 61.0339 6.44468C60.4779 6.76637 60.013 7.22447 59.6832 7.77572C59.3587 8.33518 59.1892 8.97105 59.1924 9.61779C59.1955 10.2645 59.371 10.8987 59.7008 11.4551C60.0256 12.0102 60.4917 12.4695 61.0516 12.7861C61.6146 13.1151 62.2564 13.2846 62.9084 13.2765C63.3186 13.2723 63.7258 13.2071 64.1168 13.0833C64.5213 12.9568 64.906 12.7742 65.2598 12.5409V9.72397H65.238Z" fill="black"></path><path d="M75.2047 14.3478L73.3344 11.3699C73.1266 11.3875 72.9489 11.4052 72.8149 11.4052H70.4146V14.3478H69.1096V4.89233H72.8055C73.9963 4.89233 74.9242 5.17184 75.5902 5.71527C76.2386 6.27637 76.5711 7.04632 76.5711 8.08019C76.5711 8.85118 76.3965 9.48189 76.0453 10.0066C75.6941 10.5313 75.1694 10.9002 74.5044 11.1496L76.7114 14.3551L75.2047 14.3478ZM72.8055 10.2311C73.6108 10.2311 74.2415 10.0565 74.6623 9.70633C75.0998 9.35617 75.3097 8.8304 75.3097 8.12903C75.3097 7.44636 75.1019 6.93826 74.6623 6.58809C74.2228 6.23792 73.6108 6.06232 72.8055 6.06232H70.4053V10.2311H72.8055Z" fill="black"></path><path d="M79.1283 4.88916H85.6972V6.06227H80.425V8.98828H85.1372V10.1614H80.425V13.1747H85.8552V14.3478H79.1283V4.89228V4.88916Z" fill="black"></path><path d="M94.9283 4.88916H96.2074V14.3447H94.894L89.4847 7.02548V14.3478H88.1848V4.89228H89.4982L94.9117 12.2312V4.88916H94.9283Z" fill="black"></path><path d="M97.9769 4.88916H105.369V6.07993H102.304V14.3478H101.007V6.07993H97.9593V4.88916H97.9769Z" fill="black"></path><path d="M107.103 4.88916H108.396V14.3447H107.1L107.103 4.88916Z" fill="black"></path><path d="M115.529 6.2379C115.109 6.10738 114.672 6.03741 114.232 6.03009C113.688 6.03009 113.251 6.134 112.919 6.34181C112.766 6.4301 112.639 6.5581 112.553 6.71228C112.467 6.86646 112.424 7.0411 112.428 7.21774C112.419 7.51989 112.525 7.81424 112.725 8.04068C112.93 8.26221 113.181 8.43572 113.461 8.54879C113.856 8.71171 114.26 8.8522 114.671 8.96961C115.201 9.12473 115.721 9.31175 116.229 9.52966C116.629 9.7106 116.978 9.98759 117.245 10.336C117.522 10.6865 117.661 11.1593 117.661 11.7543C117.675 12.2626 117.521 12.7613 117.224 13.1737C116.907 13.5928 116.483 13.9194 115.997 14.1192C115.419 14.3533 114.799 14.4664 114.175 14.4517C113.478 14.4482 112.789 14.3117 112.144 14.0496C111.511 13.8034 110.933 13.4339 110.445 12.9627L111.022 11.8416C111.461 12.2747 111.978 12.6197 112.547 12.8578C113.065 13.0888 113.625 13.2082 114.193 13.208C114.823 13.208 115.314 13.0854 115.682 12.8401C115.852 12.7362 115.992 12.5891 116.087 12.4138C116.183 12.2385 116.23 12.0411 116.225 11.8416C116.235 11.5392 116.128 11.2447 115.927 11.0186C115.715 10.7967 115.458 10.6233 115.173 10.5105C114.876 10.3879 114.455 10.2477 113.947 10.0949C113.421 9.94506 112.906 9.75754 112.406 9.53382C112.005 9.36346 111.659 9.08459 111.408 8.72855C111.127 8.37838 110.992 7.90456 110.992 7.34451C110.982 6.8674 111.128 6.40002 111.408 6.01346C111.707 5.61123 112.114 5.30152 112.581 5.11987C113.139 4.90141 113.734 4.79547 114.333 4.80815C114.896 4.81162 115.455 4.89417 115.995 5.05337C116.508 5.2078 116.998 5.4319 117.45 5.71941L116.916 6.86862C116.484 6.59755 116.017 6.38544 115.529 6.2379Z" fill="black"></path><path d="M119.74 13.8926C119.739 13.8277 119.751 13.7632 119.775 13.7029C119.799 13.6425 119.834 13.5876 119.88 13.5412C119.925 13.4949 119.98 13.4581 120.039 13.433C120.099 13.4078 120.164 13.3949 120.229 13.3949C120.294 13.3945 120.359 13.4071 120.419 13.4319C120.48 13.4568 120.535 13.4935 120.581 13.5398C120.628 13.5861 120.664 13.6411 120.689 13.7017C120.714 13.7622 120.727 13.8271 120.726 13.8926C120.727 14.0258 120.676 14.154 120.582 14.2491C120.489 14.3442 120.362 14.3983 120.229 14.3997C120.163 14.3987 120.098 14.3848 120.038 14.3588C119.978 14.3327 119.924 14.2951 119.879 14.2479C119.833 14.2008 119.798 14.1451 119.774 14.0841C119.75 14.0231 119.739 13.9581 119.74 13.8926Z" fill="black"></path><path d="M121.488 11.9288C121.488 10.4814 122.539 9.46729 123.982 9.46729C124.803 9.46729 125.493 9.7894 125.881 10.4263L125.393 10.7578C125.237 10.5293 125.026 10.3437 124.779 10.2181C124.532 10.0924 124.258 10.0308 123.982 10.0388C122.921 10.0388 122.147 10.7952 122.147 11.9288C122.147 13.0625 122.921 13.8189 123.982 13.8189C124.258 13.8287 124.531 13.7688 124.778 13.6448C125.025 13.5207 125.236 13.3365 125.393 13.1092L125.881 13.4417C125.493 14.0652 124.803 14.3997 123.982 14.3997C122.544 14.3997 121.488 13.3763 121.488 11.9288Z" fill="black"></path><path d="M126.601 11.9288C126.601 10.4908 127.652 9.46729 129.072 9.46729C130.492 9.46729 131.535 10.4908 131.535 11.9288C131.535 13.3669 130.496 14.3997 129.072 14.3997C127.648 14.3997 126.601 13.3679 126.601 11.9288ZM130.871 11.9288C130.871 10.7952 130.105 10.0388 129.072 10.0388C128.039 10.0388 127.265 10.7952 127.265 11.9288C127.265 13.0625 128.039 13.8189 129.072 13.8189C130.105 13.8189 130.871 13.0635 130.871 11.9288Z" fill="black"></path><path d="M140.876 11.5413V14.354H140.22V11.6067C140.22 10.5822 139.701 10.0575 138.828 10.0575C137.832 10.0575 137.206 10.7027 137.206 11.8093V14.354H136.554V11.6067C136.554 10.5822 136.035 10.0575 135.154 10.0575C134.167 10.0575 133.531 10.7027 133.531 11.8093V14.354H132.876V9.50365H133.499V10.3889C133.84 9.8081 134.468 9.46729 135.279 9.46729C136.091 9.46729 136.708 9.8081 137.003 10.4908C137.354 9.86732 138.042 9.46729 138.921 9.46729C140.101 9.46729 140.876 10.1489 140.876 11.5413Z" fill="black"></path></svg>